FILE "stream.wav" WAVE
  TRACK 01 AUDIO
    INDEX 00 00:00:00
  TRACK 02 AUDIO
    INDEX 02 00:00:01
  TRACK 00 AUDIO
    INDEX 00 00:00:02
    INDEX 02 00:00:03
  TRACK 01 AUDIO
    INDEX 01 00:00:04
    INDEX 00 00:00:05
  TRACK 01 AUDIO
    INDEX 01 00:00:05
    INDEX 01 00:00:06
